<svg width="20" height="20" viewBox="0 0 20 20" fill="none" xmlns="http://www.w3.org/2000/svg">
<path d="M15.7625 8.49089L10.4433 13.826C10.3799 13.8893 10.3113 13.9341 10.2375 13.9602C10.1636 13.9868 10.0844 14.0001 10 14.0001C9.91557 14.0001 9.83641 13.9868 9.76253 13.9602C9.68865 13.9341 9.62005 13.8893 9.55673 13.826L4.22164 8.49089C4.07388 8.34313 4 8.15843 4 7.9368C4 7.71516 4.07916 7.52519 4.23747 7.36688C4.39578 7.20857 4.58047 7.12941 4.79156 7.12941C5.00264 7.12941 5.18733 7.20857 5.34565 7.36688L10 12.0212L14.6544 7.36688C14.8021 7.21912 14.9841 7.14524 15.2002 7.14524C15.4168 7.14524 15.6042 7.2244 15.7625 7.38271C15.9208 7.54102 16 7.72572 16 7.9368C16 8.14788 15.9208 8.33258 15.7625 8.49089Z" fill="#3C3C3B"/>
</svg>
