<svg width="40" height="40" viewBox="0 0 40 40" fill="none" xmlns="http://www.w3.org/2000/svg">
<path fill-rule="evenodd" clip-rule="evenodd" d="M23.822 15.4882C24.1345 15.1758 24.5584 15.0002 25.0003 15.0002C25.4422 15.0002 25.8661 15.1758 26.1786 15.4882L34.512 23.8216C34.8244 24.1341 34.9999 24.5579 34.9999 24.9999C34.9999 25.4418 34.8244 25.8657 34.512 26.1782L26.1786 34.5116C25.8643 34.8152 25.4433 34.9831 25.0063 34.9793C24.5693 34.9755 24.1513 34.8003 23.8423 34.4913C23.5333 34.1822 23.358 33.7642 23.3542 33.3272C23.3504 32.8902 23.5184 32.4692 23.822 32.1549L30.977 24.9999L23.822 17.8449C23.5095 17.5323 23.334 17.1085 23.334 16.6666C23.334 16.2246 23.5095 15.8008 23.822 15.4882Z" fill="#DCC968"/>
<path fill-rule="evenodd" clip-rule="evenodd" d="M6.66667 5C7.10869 5 7.53262 5.17559 7.84518 5.48816C8.15774 5.80072 8.33333 6.22464 8.33333 6.66667V18.3333C8.33333 19.6594 8.86012 20.9312 9.7978 21.8689C10.7355 22.8066 12.0073 23.3333 13.3333 23.3333H33.3333C33.7754 23.3333 34.1993 23.5089 34.5118 23.8215C34.8244 24.1341 35 24.558 35 25C35 25.442 34.8244 25.866 34.5118 26.1785C34.1993 26.4911 33.7754 26.6667 33.3333 26.6667H13.3333C11.1232 26.6667 9.00358 25.7887 7.44078 24.2259C5.87797 22.6631 5 20.5435 5 18.3333V6.66667C5 6.22464 5.17559 5.80072 5.48816 5.48816C5.80072 5.17559 6.22464 5 6.66667 5Z" fill="#DCC968"/>
</svg>
