<svg width="38" height="38" viewBox="0 0 38 38" fill="none" xmlns="http://www.w3.org/2000/svg">
<circle cx="19" cy="19" r="18" transform="rotate(-180 19 19)" stroke="#DCC968" stroke-width="2"/>
<path d="M22 29C21.4477 29 21 28.5523 21 28C21 27.4477 21.4477 27 22 27C22.5523 27 23 27.4477 23 28C23 28.5523 22.5523 29 22 29Z" stroke="#DCC968" stroke-width="2" stroke-linecap="round" stroke-linejoin="round"/>
<path d="M11 29C10.4477 29 10 28.5523 10 28C10 27.4477 10.4477 27 11 27C11.5523 27 12 27.4477 12 28C12 28.5523 11.5523 29 11 29Z" stroke="#DCC968" stroke-width="2" stroke-linecap="round" stroke-linejoin="round"/>
<path d="M30 8H26L23.32 21.39C23.2286 21.8504 22.9781 22.264 22.6125 22.5583C22.2468 22.8526 21.7893 23.009 21.32 23H11.6C11.1307 23.009 10.6732 22.8526 10.3075 22.5583C9.94191 22.264 9.69145 21.8504 9.6 21.39L8 13H25" stroke="#DCC968" stroke-width="2" stroke-linecap="round" stroke-linejoin="round"/>
</svg>
