<svg width="20" height="20" viewBox="0 0 20 20" fill="none" xmlns="http://www.w3.org/2000/svg">
<path d="M8.49089 15.7625L13.826 10.4433C13.8893 10.3799 13.9341 10.3113 13.9602 10.2375C13.9868 10.1636 14.0001 10.0844 14.0001 10C14.0001 9.91557 13.9868 9.83641 13.9602 9.76253C13.9341 9.68865 13.8893 9.62005 13.826 9.55673L8.49089 4.22164C8.34313 4.07388 8.15843 4 7.9368 4C7.71516 4 7.52519 4.07916 7.36688 4.23747C7.20857 4.39578 7.12941 4.58047 7.12941 4.79156C7.12941 5.00264 7.20857 5.18734 7.36688 5.34565L12.0212 10L7.36688 14.6544C7.21912 14.8021 7.14524 14.9841 7.14524 15.2002C7.14524 15.4168 7.2244 15.6042 7.38271 15.7625C7.54102 15.9208 7.72572 16 7.9368 16C8.14788 16 8.33258 15.9208 8.49089 15.7625Z" fill="#C5C5C5"/>
</svg>
