<svg width="22" height="61" viewBox="0 0 22 61" fill="none" xmlns="http://www.w3.org/2000/svg">
<g clip-path="url(#clip0_54_3771)">
<path d="M1.33295 61C0.881721 60.7035 0.449046 60.4192 0 60.1242C6.71726 50.2438 13.4269 40.3747 20.1429 30.4962C13.4311 20.6239 6.72223 10.7561 0.00157645 0.870649C0.444074 0.579557 0.868988 0.300051 1.32543 0C1.42584 0.138081 1.52576 0.2678 1.61768 0.402895C8.37483 10.34 15.1307 20.2781 21.8936 30.2115C22.0436 30.432 22.0297 30.5741 21.8851 30.7864C15.0781 40.7869 8.27709 50.7917 1.47532 60.7959C1.43639 60.8532 1.39613 60.9096 1.33295 61Z" fill="#3C3C3B"/>
</g>
<defs>
<clipPath id="clip0_54_3771">
<rect width="22" height="61" fill="white"/>
</clipPath>
</defs>
</svg>
