<svg width="20" height="20" viewBox="0 0 20 20" fill="none" xmlns="http://www.w3.org/2000/svg">
<path d="M11.5091 15.7625L6.17402 10.4433C6.1107 10.3799 6.06595 10.3113 6.03977 10.2375C6.01318 10.1636 5.99988 10.0844 5.99988 10C5.99988 9.91557 6.01318 9.83641 6.03977 9.76253C6.06595 9.68865 6.1107 9.62005 6.17402 9.55673L11.5091 4.22164C11.6569 4.07388 11.8416 4 12.0632 4C12.2848 4 12.4748 4.07916 12.6331 4.23747C12.7914 4.39578 12.8706 4.58047 12.8706 4.79156C12.8706 5.00264 12.7914 5.18734 12.6331 5.34565L7.97877 10L12.6331 14.6544C12.7809 14.8021 12.8548 14.9841 12.8548 15.2002C12.8548 15.4168 12.7756 15.6042 12.6173 15.7625C12.459 15.9208 12.2743 16 12.0632 16C11.8521 16 11.6674 15.9208 11.5091 15.7625Z" fill="#C5C5C5"/>
</svg>
