<svg width="22" height="61" viewBox="0 0 22 61" fill="none" xmlns="http://www.w3.org/2000/svg">
<g clip-path="url(#clip0_54_3770)">
<path d="M20.6671 61C21.1183 60.7035 21.551 60.4192 22 60.1242C15.2827 50.2438 8.57313 40.3747 1.85708 30.4962C8.56888 20.6239 15.2778 10.7561 21.9984 0.870649C21.5559 0.579557 21.131 0.300051 20.6746 0C20.5742 0.138081 20.4742 0.2678 20.3823 0.402895C13.6252 10.34 6.86935 20.2781 0.106373 30.2115C-0.0436325 30.432 -0.029686 30.5741 0.114862 30.7864C6.92186 40.7869 13.7229 50.7917 20.5247 60.7959C20.5636 60.8532 20.6039 60.9096 20.6671 61Z" fill="#3C3C3B"/>
</g>
<defs>
<clipPath id="clip0_54_3770">
<rect width="22" height="61" fill="white" transform="matrix(-1 0 0 1 22 0)"/>
</clipPath>
</defs>
</svg>
