<svg width="20" height="20" viewBox="0 0 20 20" fill="none" xmlns="http://www.w3.org/2000/svg">
<g clip-path="url(#clip0_54_3743)">
<path d="M9.99984 18.3333C14.6022 18.3333 18.3332 14.6024 18.3332 9.99999C18.3332 5.39762 14.6022 1.66666 9.99984 1.66666C5.39746 1.66666 1.6665 5.39762 1.6665 9.99999C1.6665 14.6024 5.39746 18.3333 9.99984 18.3333Z" stroke="#898989" stroke-width="1.66667" stroke-linecap="round" stroke-linejoin="round"/>
<path d="M7.57471 7.50008C7.77063 6.94313 8.15733 6.4735 8.66634 6.17436C9.17534 5.87521 9.77379 5.76586 10.3557 5.86567C10.9376 5.96548 11.4654 6.26801 11.8456 6.71968C12.2258 7.17135 12.4339 7.74301 12.433 8.33341C12.433 10.0001 9.93304 10.8334 9.93304 10.8334" stroke="#898989" stroke-width="1.66667" stroke-linecap="round" stroke-linejoin="round"/>
<path d="M10 14.1667H10.0088" stroke="#898989" stroke-width="1.66667" stroke-linecap="round" stroke-linejoin="round"/>
</g>
<defs>
<clipPath id="clip0_54_3743">
<rect width="20" height="20" fill="white"/>
</clipPath>
</defs>
</svg>
