<svg width="24" height="24" viewBox="0 0 24 24" fill="none" xmlns="http://www.w3.org/2000/svg">
<g id="icon-turn-front" clip-path="url(#clip0_1010_1942)">
<g id="Group">
<path id="Vector" d="M17.3102 10.2587L21.7164 15.3026L17.3102 20.3464C16.9541 20.7545 16.9957 21.3741 17.4037 21.7305C17.8118 22.0866 18.4311 22.0447 18.7878 21.637L23.7577 15.9477C24.0808 15.5783 24.0808 15.0266 23.7577 14.6572L18.7877 8.96785C18.6956 8.86237 18.582 8.77785 18.4545 8.71998C18.3269 8.66211 18.1885 8.63224 18.0485 8.63236C17.8113 8.63217 17.5821 8.71829 17.4037 8.87466C16.9956 9.23105 16.9538 9.85069 17.3102 10.2587Z" fill="#C8B554"/>
<path id="Vector_2" d="M7.12828 16.2834L23.0191 16.2834C23.5609 16.2834 24 15.8444 24 15.3025C24 14.7608 23.5609 14.3216 23.0191 14.3216L7.12828 14.3216C4.27941 14.3216 1.96181 12.0041 1.96181 9.15549C1.96181 6.3069 4.27941 3.98935 7.12828 3.98935L21.7112 3.98935C22.253 3.98935 22.6921 3.55023 22.6921 3.00845C22.6921 2.46667 22.253 2.02754 21.7112 2.02754L7.12828 2.02754C3.19809 2.02754 9.66733e-07 5.2253 6.23145e-07 9.15549C2.79558e-07 13.0857 3.19777 16.2834 7.12828 16.2834Z" fill="#C8B554"/>
</g>
</g>
<defs>
<clipPath id="clip0_1010_1942">
<rect width="24" height="24" fill="white"/>
</clipPath>
</defs>
</svg>
