<svg width="40" height="40" viewBox="0 0 40 40" fill="none" xmlns="http://www.w3.org/2000/svg">
<g id="Frame">
<g id="Group">
<g id="Group_2">
<path id="Vector" d="M15.9728 24.7273C16.1966 24.5038 16.5 24.3782 16.8164 24.3782C17.1328 24.3782 17.4362 24.5038 17.6601 24.7273L20.8437 27.9109C21.0673 28.1348 21.1928 28.4382 21.1928 28.7546C21.1928 29.071 21.0673 29.3744 20.8437 29.5983L17.6601 32.7819C17.5508 32.8992 17.419 32.9932 17.2725 33.0585C17.1261 33.1237 16.968 33.1588 16.8077 33.1617C16.6474 33.1645 16.4882 33.135 16.3395 33.075C16.1909 33.0149 16.0558 32.9255 15.9424 32.8122C15.8291 32.6988 15.7397 32.5638 15.6797 32.4151C15.6196 32.2665 15.5901 32.1072 15.593 31.9469C15.5958 31.7866 15.6309 31.6285 15.6961 31.4821C15.7614 31.3357 15.8555 31.2038 15.9728 31.0946L18.3127 28.7546L15.9728 26.4146C15.7492 26.1908 15.6236 25.8874 15.6236 25.571C15.6236 25.2546 15.7492 24.9512 15.9728 24.7273Z" fill="white"/>
<path id="Vector_2" d="M8.2107 14.1006C11.2893 12.5613 15.4582 11.6428 19.9996 11.6428C24.5411 11.6428 28.71 12.5613 31.7902 14.1006C34.7971 15.6032 37.1116 17.9018 37.1116 20.7957C37.1116 22.9447 35.8158 24.7752 33.9662 26.1633C32.1069 27.5561 29.5457 28.6195 26.6216 29.2594C26.3121 29.3269 25.9885 29.2688 25.7219 29.0977C25.4553 28.9267 25.2676 28.6567 25.2001 28.3473C25.1325 28.0378 25.1907 27.7142 25.3617 27.4476C25.5328 27.181 25.8027 26.9933 26.1122 26.9258C28.8103 26.3368 31.0245 25.3833 32.5351 24.2515C34.0553 23.1134 34.7239 21.9084 34.7239 20.7957C34.7239 19.2931 33.4759 17.6121 30.7221 16.2352C28.0383 14.8949 24.2498 14.0305 19.9996 14.0305C15.7495 14.0305 11.961 14.8949 9.27721 16.2352C6.52338 17.6121 5.27541 19.2931 5.27541 20.7957C5.27541 22.2984 6.52338 23.9793 9.27721 25.3562C11.961 26.6965 15.7495 27.5609 19.9996 27.5609C20.3163 27.5609 20.6199 27.6867 20.8438 27.9106C21.0677 28.1345 21.1935 28.4381 21.1935 28.7548C21.1935 29.0714 21.0677 29.3751 20.8438 29.5989C20.6199 29.8228 20.3163 29.9486 19.9996 29.9486C15.4582 29.9486 11.2893 29.0301 8.2107 27.4909C5.20218 25.9882 2.8877 23.6896 2.8877 20.7957C2.8877 17.9018 5.20218 15.6032 8.2107 14.1006Z" fill="white"/>
</g>
</g>
</g>
</svg>
